<svg xmlns="http://www.w3.org/2000/svg" viewBox="0 0 64 64" id="Bulb"><path fill="#54b435" d="M49.69 25.67c.74 0 1.39-.55 1.49-1.31.11-.82.16-1.67.16-2.51 0-.83-.67-1.5-1.5-1.5s-1.5.67-1.5 1.5c0 .71-.05 1.42-.14 2.12-.11.82.47 1.57 1.29 1.68.07.01.14.02.2.02z" class="color231f20 svgShape"></path><path fill="#54b435" d="M24.26 45.86H40.21c.74 0 1.36-.53 1.48-1.26l.13-.82c.52-3.2 2.07-6.29 4.49-8.93 1.02-1.12 1.91-2.36 2.64-3.68.4-.73.14-1.64-.59-2.04a1.5 1.5 0 0 0-2.04.59c-.62 1.12-1.37 2.17-2.23 3.11-2.7 2.96-4.47 6.42-5.15 10.03h-2.79c.31-4.33 1.86-8.64 2.65-10.83.55-1.53.7-1.94.55-2.52-.17-.67-.77-1.14-1.46-1.14H26.11c-.69 0-1.29.47-1.46 1.13-.15.58 0 .99.55 2.53.79 2.19 2.33 6.5 2.65 10.82h-2.79A19.57 19.57 0 0 0 20.07 33c-3.23-3.43-4.77-7.92-4.36-12.64.68-7.7 6.74-13.9 14.4-14.75 6.37-.71 12.43 2.23 15.79 7.67.43.71 1.36.92 2.06.49.71-.43.92-1.36.49-2.06C44.5 5.28 37.35 1.8 29.8 2.64c-9.08 1.01-16.25 8.35-17.06 17.47-.49 5.5 1.39 10.96 5.16 14.96a16.57 16.57 0 0 1 4.23 8.41 4.083 4.083 0 0 0-1.97 3.49c0 .99.37 1.89.96 2.6-.59.71-.96 1.61-.96 2.6 0 2.26 1.84 4.1 4.1 4.1h1.98c.29 2.93 2.76 5.22 5.76 5.22s5.47-2.29 5.76-5.21h1.98c2.26 0 4.1-1.84 4.1-4.1 0-2.16-1.68-3.92-3.8-4.07-.1-.02-.2-.03-.3-.03H24.26c-.61 0-1.1-.5-1.1-1.1s.49-1.12 1.1-1.12zm3.9-14.48h7.68c-.88 2.45-2.41 6.9-2.71 11.48h-2.27c-.29-4.59-1.82-9.03-2.7-11.48zM32 58.49c-1.34 0-2.46-.95-2.73-2.21h5.45A2.779 2.779 0 0 1 32 58.49zm7.74-7.42c.61 0 1.1.5 1.1 1.1s-.5 1.1-1.1 1.1H24.25c-.61 0-1.1-.5-1.1-1.1s.5-1.1 1.1-1.1h15.49zM15.76 7.96c.07-.05.13-.12.19-.18 1.08-1.24.46-2.08.15-2.38-.32-.3-1.19-.89-2.37.25-1.19 1.14-.64 2.03-.35 2.36.17.2.53.51 1.07.51.35 0 .79-.14 1.31-.56zm-.14-1.94c.47.53.44 1.17.25 1.61l-.79-1.12.54-.49z" class="color231f20 svgShape"></path><path fill="#54b435" d="M16.37 38.55c.6-.57.63-1.52.07-2.12-4.16-4.42-6.23-10.44-5.69-16.51.2-2.23.74-4.39 1.62-6.45a1.501 1.501 0 0 0-2.76-1.18c-1 2.34-1.62 4.82-1.85 7.36a24.402 24.402 0 0 0 6.5 18.83c.3.31.69.47 1.09.47.36.01.73-.12 1.02-.4z" class="color231f20 svgShape"></path></svg>