<svg xmlns="http://www.w3.org/2000/svg" viewBox="0 0 512 512" id="Bulb"><path d="M292.1 366.7h-74.3c-19.4 0-35.1-15.7-35.1-35.1v-7.5c0-7.4-7.1-15.5-13.4-22.7-2.4-2.7-4.6-5.3-6.5-7.8-15.1-20.2-23.1-44.2-23.1-69.4 0-64 52.1-116.1 116.1-116.1s116.1 52.1 116.1 116.1c0 26-8.4 50.5-24.2 71-1.8 2.4-4 4.8-6.3 7.4-6.6 7.4-14.1 15.9-14.1 23.6v5.4c-.1 19.3-15.9 35.1-35.2 35.1zm-36.4-251.6c-60.1 0-109.1 48.9-109.1 109.1 0 23.7 7.5 46.3 21.7 65.3 1.7 2.3 3.9 4.8 6.2 7.4 7.1 8.1 15.1 17.3 15.1 27.3v7.5c0 15.5 12.6 28.1 28.1 28.1H292c15.5 0 28.1-12.6 28.1-28.1v-5.4c0-10.4 8.4-19.9 15.9-28.3 2.2-2.5 4.3-4.8 6-7 14.9-19.2 22.8-42.3 22.8-66.7 0-60.3-48.9-109.2-109.1-109.2z" fill="#54b435" class="color000000 svgShape"></path><path d="M356.3 229.7c-1.9 0-3.5-1.6-3.5-3.5 0-54.6-44.4-99.1-99.1-99.1-1.9 0-3.5-1.6-3.5-3.5s1.6-3.5 3.5-3.5c58.5 0 106.1 47.6 106.1 106.1 0 1.9-1.6 3.5-3.5 3.5zm-78.4 206.9h-44.4c-14.3 0-26-11.7-26-26v-.3c0-4.3 3.5-7.9 7.9-7.9H296c4.3 0 7.9 3.5 7.9 7.9v.3c0 14.3-11.6 26-26 26zm-62.5-27.2c-.5 0-.9.4-.9.9v.3c0 10.5 8.5 19 19 19h44.4c10.5 0 19-8.5 19-19v-.3c0-.5-.4-.9-.9-.9h-80.6z" fill="#54b435" class="color000000 svgShape"></path><path d="M261 449.6h-10.6c-6.5 0-11.8-5.3-11.8-11.8v-2.2c0-2.8 2.3-5.1 5.1-5.1h23.9c2.8 0 5.1 2.3 5.1 5.1v2.2c.1 6.5-5.2 11.8-11.7 11.8zm-15.3-12.1v.3c0 2.6 2.1 4.8 4.8 4.8H261c2.6 0 4.8-2.1 4.8-4.8v-.3h-20.1zm49-39.6h-77.9c-5.1 0-9.2-4.1-9.2-9.2v-8.6c0-5.1 4.1-9.2 9.2-9.2h77.9c5.1 0 9.2 4.1 9.2 9.2v8.6c0 5.1-4.1 9.2-9.2 9.2zm-77.9-20c-1.2 0-2.2 1-2.2 2.2v8.6c0 1.2 1 2.2 2.2 2.2h77.9c1.2 0 2.2-1 2.2-2.2v-8.6c0-1.2-1-2.2-2.2-2.2h-77.9zm49.5-11.2c-1.8 0-3.4-1.4-3.5-3.3-.2-2.9-4.1-70 12.4-98.3-9.2 2-22.6 3.2-38.6-.4 16.8 28.1 12.8 95.7 12.6 98.7-.1 1.9-1.8 3.4-3.7 3.3-1.9-.1-3.4-1.8-3.3-3.7 0-.7 4.2-72.3-13-96.7-1.4-2-1.4-4.7 0-6.7s3.8-3 6.2-2.3c17.5 4.4 31.8 2.7 40.7.4 2.4-.6 4.8.3 6.2 2.3 1.4 2 1.4 4.7 0 6.7-16.9 24.8-12.7 95.6-12.7 96.3.1 1.9-1.3 3.6-3.3 3.7.1 0 0 0 0 0z" fill="#54b435" class="color000000 svgShape"></path><path d="M266.1 327.3c-8.6 1.5-15.2 1.4-20.1.7.8 19.4-.2 35.1-.2 35.1h20.5c0 .1-1-16-.2-35.8z" fill="#54b435" class="color000000 svgShape"></path><path d="M270 366.7h-28l.2-3.7c0-.2.9-15.8.2-34.8l-.2-4.2 4.2.6c5.4.8 11.8.6 19-.7l4.3-.7-.2 4.3c-.8 19.3.2 35.3.2 35.5l.3 3.7zm-20.6-7h13.2c-.2-5.3-.5-15.9-.2-28.3-4.6.6-8.9.8-12.9.5.4 12.2.1 22.5-.1 27.8zm6.7-267.4c-1.4 0-2.5-1.1-2.5-2.5V65.9c0-1.4 1.1-2.5 2.5-2.5s2.5 1.1 2.5 2.5v23.9c0 1.4-1.1 2.5-2.5 2.5zM316.4 77.9l-9.2 22.1M307.2 102.5c-.3 0-.6-.1-1-.2-1.3-.5-1.9-2-1.4-3.3l9.1-22.1c.5-1.3 2-1.9 3.3-1.4 1.3.5 1.9 2 1.4 3.3l-9.1 22.1c-.4 1-1.3 1.6-2.3 1.6zM367.4 112.1 350.5 129M350.5 131.5c-.6 0-1.3-.2-1.8-.7-1-1-1-2.6 0-3.5l16.9-16.9c1-1 2.6-1 3.5 0 1 1 1 2.6 0 3.5l-16.9 16.9c-.4.5-1 .7-1.7.7zM401.5 163.2l-22.1 9.2M379.4 174.9c-1 0-1.9-.6-2.3-1.5-.5-1.3.1-2.7 1.4-3.3l22.1-9.1c1.3-.5 2.7.1 3.3 1.4.5 1.3-.1 2.7-1.4 3.3l-22.1 9.1c-.3 0-.6.1-1 .1zM413.5 223.5h-23.9M413.5 226h-23.9c-1.4 0-2.5-1.1-2.5-2.5s1.1-2.5 2.5-2.5h23.9c1.4 0 2.5 1.1 2.5 2.5s-1.2 2.5-2.5 2.5zM401.4 283.7l-22.1-9.1M401.4 286.2c-.3 0-.6-.1-1-.2l-22.1-9.1c-1.3-.5-1.9-2-1.4-3.3.5-1.3 2-1.9 3.3-1.4l22.1 9.1c1.3.5 1.9 2 1.4 3.3-.4 1.1-1.3 1.6-2.3 1.6zM367.3 334.8l-17-16.9M367.3 337.3c-.6 0-1.3-.2-1.8-.7l-16.9-16.9c-1-1-1-2.6 0-3.5 1-1 2.6-1 3.5 0L369 333c1 1 1 2.6 0 3.5-.5.5-1.1.8-1.7.8zM144.6 334.6l16.9-16.9M144.6 337.1c-.6 0-1.3-.2-1.8-.7-1-1-1-2.6 0-3.5l16.9-16.9c1-1 2.6-1 3.5 0 1 1 1 2.6 0 3.5l-16.9 16.9c-.5.5-1.1.7-1.7.7zM110.5 283.5l22.1-9.1M110.5 286c-1 0-1.9-.6-2.3-1.5-.5-1.3.1-2.7 1.4-3.3l22.1-9.1c1.3-.5 2.7.1 3.3 1.4s-.1 2.7-1.4 3.3l-22.1 9.1c-.4 0-.7.1-1 .1zM122.4 225.7H98.5c-1.4 0-2.5-1.1-2.5-2.5s1.1-2.5 2.5-2.5h23.9c1.4 0 2.5 1.1 2.5 2.5s-1.1 2.5-2.5 2.5zM110.6 163l22.1 9.1M132.7 174.6c-.3 0-.6-.1-1-.2l-22.1-9.1c-1.3-.5-1.9-2-1.4-3.3.5-1.3 2-1.9 3.3-1.4l22.1 9.1c1.3.5 1.9 2 1.4 3.3-.4 1.1-1.4 1.6-2.3 1.6zM144.7 111.9l17 16.9M161.7 131.3c-.6 0-1.3-.2-1.8-.7L143 113.7c-1-1-1-2.6 0-3.5 1-1 2.6-1 3.5 0l16.9 16.9c1 1 1 2.6 0 3.5-.5.5-1.1.7-1.7.7zM195.9 77.8l9.1 22.1M205 102.4c-1 0-1.9-.6-2.3-1.5l-9.1-22.1c-.5-1.3.1-2.7 1.4-3.3 1.3-.5 2.7.1 3.3 1.4l9.1 22.1c.5 1.3-.1 2.7-1.4 3.3-.3.1-.7.1-1 .1z" fill="#54b435" class="color000000 svgShape"></path><path d="M256.1 92.3c-1.4 0-2.5-1.1-2.5-2.5V65.9c0-1.4 1.1-2.5 2.5-2.5s2.5 1.1 2.5 2.5v23.9c0 1.4-1.1 2.5-2.5 2.5z" fill="#54b435" class="color000000 svgShape"></path></svg>