<svg xmlns="http://www.w3.org/2000/svg" viewBox="0 0 24 24" id="Bulb"><path d="M12 2a.5.5 0 0 0 .5-.5v-1a.5.5 0 0 0-1 0v1a.5.5 0 0 0 .5.5zM3.5 9.5h-1a.5.5 0 0 0 0 1h1a.5.5 0 0 0 0-1zm18 0h-1a.5.5 0 0 0 0 1h1a.5.5 0 0 0 0-1zM5.636 4.343a.5.5 0 1 0 .708-.706l-.708-.708a.5.5 0 0 0-.707.707l.707.707zm12.728 11.314a.5.5 0 0 0-.707.707l.707.707a.498.498 0 0 0 .708 0 .5.5 0 0 0 0-.707l-.708-.707zm-12.728 0-.707.707a.5.5 0 0 0 .708.707l.707-.707a.5.5 0 0 0-.708-.707zM18.364 2.929l-.707.707a.5.5 0 0 0 .708.707l.707-.707a.5.5 0 0 0-.708-.707z" fill="#54b435" class="color000000 svgShape"></path><path d="M15.821 15.864a6.966 6.966 0 0 0 3.177-6.022C18.916 6.115 15.815 3.045 12.086 3c-1.859-.059-3.665.694-5.005 2.02A6.95 6.95 0 0 0 5 10a6.98 6.98 0 0 0 3.194 5.874c.45.292.725.742.782 1.226A1.498 1.498 0 0 0 8 18.5c0 .386.15.734.39 1-.24.266-.39.614-.39 1a1.5 1.5 0 0 0 1.172 1.461l.881 1.762A.5.5 0 0 0 10.5 24h3a.5.5 0 0 0 .447-.276l.881-1.762A1.502 1.502 0 0 0 16 20.5c0-.386-.15-.734-.39-1 .24-.266.39-.614.39-1 0-.642-.407-1.186-.975-1.4.059-.484.339-.937.796-1.236zM13.5 13c-.366 0-.704-.108-1-.281V16.5h-1v-3.781a1.973 1.973 0 0 1-1 .281c-1.103 0-2-.897-2-2a.5.5 0 0 1 1 0c0 .551.449 1 1 1s1-.449 1-1a.5.5 0 0 1 1 0c0 .551.449 1 1 1s1-.449 1-1a.5.5 0 0 1 1 0c0 1.103-.897 2-2 2z" fill="#54b435" class="color000000 svgShape"></path></svg>