<svg xmlns="http://www.w3.org/2000/svg" enable-background="new 0 0 100 100" viewBox="0 0 100 100" id="like"><path d="M64.396,82H47.777c-2.78,0-5.564-0.658-8.05-1.9l-2.459-1.23C36.249,80.732,34.27,82,32,82h-6
	c-3.309,0-6-2.691-6-6V44c0-3.309,2.691-6,6-6h8.646l7.497-18.742C42.447,18.498,43.183,18,44,18h1.16
	c2.82,0,5.523,1.199,7.415,3.291c1.892,2.09,2.816,4.898,2.535,7.705L54.21,38H70c5.514,0,10,4.486,10,10
	c0,1.49-0.181,2.977-0.535,4.42l-5.607,22.793c-0.018,0.068-0.038,0.137-0.062,0.205C72.362,79.355,68.586,82,64.396,82z M38,74.764
	l3.517,1.758C43.45,77.488,45.615,78,47.777,78h16.619c2.48,0,4.72-1.545,5.604-3.855l5.579-22.682C75.858,50.332,76,49.168,76,48
	c0-3.309-2.691-6-6-6H52c-0.565,0-1.104-0.238-1.482-0.658c-0.38-0.418-0.563-0.979-0.508-1.541l1.12-11.203
	c0.171-1.709-0.369-3.352-1.521-4.623c-1.108-1.227-2.614-1.922-4.257-1.971L38,40.385V74.764z M26,42c-1.103,0-2,0.896-2,2v32
	c0,1.104,0.897,2,2,2h6c1.103,0,2-0.896,2-2V42H26z" fill="#54b435" class="color000000 svgShape"></path></svg>